<svg xmlns="http://www.w3.org/2000/svg" width="310" height="270" shape-rendering="geometricPrecision" text-rendering="geometricPrecision"><path style="fill:none" stroke="#6c6c6c" stroke-width="3" d="M305 260H112V70L215 20l90 50z"/><rect width="75" height="155" fill="#d2dbed" rx="0" ry="0" transform="matrix(1 0 0 .7 118 70)"/><path stroke="#47639b" stroke-width="3" d="M0 87h114M116 87l78 78 M194 166h65"/><path stroke="#f88282" stroke-width="3" d="M116 166h-114 M116 166l78-78 M194 87h65"/><path stroke="#47639b" stroke-linecap="square" stroke-width="3" d="M222 219v-53M222 219l-45-0 M40 218h94 M40 218V90"/><text id="t8" x="43" y="80" font-size="24">T8</text><text id="vent" x="40" y="40" font-size="24">Vent</text><text id="t4" x="55" y="155" font-size="24">T4</text><text id="t3" x="210" y="80" font-size="24">T3</text><text id="t7" x="230" y="155" font-size="24">T7</text><text id="rh" x="260" y="235" font-size="24">RH</text><text id="bypass" x="43" y="210" font-size="24">Bypass</text><text id="temp" x="210" y="30" font-size="24">Temp</text><rect width="60" height="55" fill="#d2dbed" rx="0" ry="0" transform="matrix(.7 0 0 1 134 190)"/><line id="act-bypass" x1="155" x2="155" y1="240" y2="200" stroke="#47639b" stroke-width="3" transform="rotate(30,155,220)"/><path stroke="#47639b" stroke-width="2" d="M-20 0-30 15l1-17z" transform="matrix(-1.1 1.3 -.8 -.6 235 202)"/><path stroke="#47639b" stroke-width="2" d="M-19 0-30 15l1-17z" transform="matrix(-1 1.3 -.8 -.6 -18 123)"/><path stroke="#f88282" stroke-width="2" d="m-19 1-1 16-10-1z" transform="matrix(-1.1 1.3 -.8 -.6 245 124)"/><path stroke="#f88282" stroke-width="2" d="m-20 0-1 16-10-1z" transform="matrix(-1.1 1.3 -.8 -.6 -7.631 202)"/><path style="fill:none" stroke="#1a469e" stroke-width="6" d="M242 200q-17 24-16 33c0 10 5 17 17 15s13-10 14-17c0-8-7-14-13-33z"/><path stroke="#47639b" stroke-width="6" d="M60 257q-20 26-20 34c0 12 7 17 20 17s18-9 18-17c0-8-7-16-18-34z" transform="matrix(.3 0 0 .2757 1.2 -42)"/><path stroke="#47639b" stroke-width="6" d="M60 257q-20 26-20 34c0 12 7 17 20 17s18-9 18-17c0-8-7-16-18-34z" transform="matrix(-.13 -.24 .24 -.14 -36 78)"/><path stroke="#47639b" stroke-width="6" d="M60 257q-20 26-20 34c0 12 7 17 20 17s18-9 18-17c0-8-7-16-18-34z" transform="matrix(-.1 .24 -.24 -.14 87 50)"/></svg>